<svg width="28" height="28" viewBox="0 0 28 28" fill="none" xmlns="http://www.w3.org/2000/svg">
<path d="M13.894 2.87415C13.9341 2.83155 13.9746 2.82122 14 2.82122C14.0254 2.82122 14.066 2.83155 14.1061 2.87415L24.2614 13.6518C24.6116 14.0234 24.8142 14.5328 24.8142 15.0764V23.451C24.8142 23.9685 24.4276 24.3038 24.0599 24.3038H18.2372C17.88 24.3038 17.504 23.9798 17.504 23.4735V18.4082C17.504 16.4326 15.9815 14.7418 14 14.7418C12.0185 14.7418 10.4961 16.4326 10.4961 18.4082V23.4735C10.4961 23.9798 10.1201 24.3038 9.76292 24.3038H3.94019C3.57245 24.3038 3.18584 23.9685 3.18584 23.451V15.0764C3.18584 14.5328 3.38852 14.0234 3.73865 13.6518L13.894 2.87415Z" stroke="#FAFAFA" stroke-width="1.70493"/>
</svg>
