<svg width="111" height="38" viewBox="0 0 111 38" fill="none" xmlns="http://www.w3.org/2000/svg">
<g clip-path="url(#clip0_7_475)">
<path d="M5.69716 6.71871C3.4315 7.66676 0.940788 10.3451 0.154139 13.7071C-0.84209 17.9668 3.30368 19.7681 3.64372 19.1775C4.04394 18.4835 2.90085 18.2488 2.66555 16.0387C2.36145 13.1841 3.68898 9.99442 5.35972 8.59488C5.67028 8.33486 5.65551 8.69677 5.65551 9.36618C5.65551 10.5632 5.58934 21.3094 5.58934 23.5521C5.58934 26.5868 5.46396 27.5451 5.23877 28.492C5.0106 29.4516 4.64378 30.1 4.92173 30.3498C5.23228 30.6292 6.55821 29.9646 7.3258 28.8937C8.24627 27.6092 8.56847 26.0666 8.62632 24.3914C8.69619 22.372 8.69321 19.1677 8.69619 17.3399C8.69898 15.6636 8.72443 10.755 8.66679 7.80408C8.65266 7.08029 6.64466 6.32093 5.69705 6.71783L5.69716 6.71871ZM86.1505 20.9208C86.0775 22.4985 85.7282 23.7317 85.2946 24.6015C84.4552 26.2854 82.7135 26.8082 81.974 24.3876C81.571 23.0681 81.5522 20.8643 81.8419 19.023C82.1368 17.1472 82.9604 15.7305 84.3241 15.8583C85.6691 15.9846 86.2987 17.7171 86.1505 20.9208V20.9208ZM63.4754 30.709C63.4572 33.3304 63.0445 35.6288 62.1595 36.2964C60.9042 37.243 59.2171 36.5329 59.5665 34.6201C59.8756 32.9274 61.3374 31.1987 63.479 29.0865C63.479 29.0865 63.4835 29.5682 63.4755 30.709H63.4754ZM63.1326 20.9056C63.0559 22.3425 62.6832 23.786 62.2767 24.6017C61.4375 26.2856 59.6831 26.812 58.9561 24.3878C58.459 22.7314 58.578 20.5877 58.824 19.237C59.1431 17.4845 59.9167 15.8587 61.3061 15.8587C62.6569 15.8587 63.323 17.3401 63.1326 20.9057V20.9056ZM49.9969 20.8836C49.9145 22.4054 49.6175 23.6776 49.1409 24.6017C48.2786 26.274 46.5727 26.8043 45.8204 24.3878C45.278 22.6452 45.4626 20.2692 45.6882 18.9857C46.0231 17.0811 46.8615 15.7307 48.1704 15.8587C49.5149 15.99 50.1685 17.7173 49.9969 20.8837V20.8836ZM110.195 22.6612C109.866 22.6612 109.716 22.9999 109.592 23.5699C109.162 25.5521 108.709 25.9996 108.126 25.9996C107.474 25.9996 106.889 25.0182 106.738 23.0534C106.62 21.5085 106.639 18.6643 106.79 15.835C106.821 15.2537 106.661 14.6786 105.101 14.1121C104.43 13.8685 103.454 13.5098 102.968 14.6819C101.596 17.9934 101.059 20.6224 100.933 21.6904C100.926 21.7457 100.858 21.757 100.847 21.6278C100.766 20.7724 100.586 19.218 100.564 15.9522C100.559 15.315 100.424 14.7726 99.7208 14.3286C99.2643 14.0404 97.8781 13.5308 97.3789 14.1371C96.9465 14.6329 96.4456 15.9673 95.9252 17.549C95.5023 18.8345 95.2077 19.7042 95.2077 19.7042C95.2077 19.7042 95.2133 16.2355 95.2184 14.9198C95.2206 14.4234 94.88 14.258 94.7773 14.228C94.3151 14.0939 93.4043 13.8698 93.0177 13.8698C92.5407 13.8698 92.4239 14.1364 92.4239 14.5247C92.4239 14.5756 92.3487 19.0916 92.3487 22.2494C92.3487 22.3865 92.3486 22.5362 92.35 22.6951C92.0862 24.1465 91.2306 26.1167 90.3002 26.1167C89.3686 26.1167 88.929 25.293 88.929 21.5284C88.929 19.3323 88.995 18.3773 89.0274 16.7889C89.0462 15.874 89.0826 15.1715 89.0805 15.012C89.0737 14.5231 88.2279 14.2767 87.8344 14.1856C87.439 14.0938 87.0955 14.0582 86.8272 14.0735C86.4475 14.0949 86.1788 14.3439 86.1788 14.6864C86.1788 14.8701 86.1809 15.2193 86.1809 15.2193C85.6918 14.451 84.9052 13.9163 84.3818 13.7613C82.9721 13.3428 81.5011 13.7136 80.3916 15.2657C79.5097 16.4989 78.9781 17.8957 78.7689 19.9024C78.6159 21.3695 78.6659 22.8572 78.9377 24.1154C78.6092 25.535 77.9994 26.1167 77.3316 26.1167C76.3622 26.1167 75.6594 24.5349 75.741 21.7992C75.7949 19.9999 76.155 18.7372 76.5487 16.9104C76.7166 16.1316 76.5802 15.7239 76.2381 15.3331C75.9244 14.9748 75.2559 14.7917 74.2948 15.0169C73.6103 15.1774 72.6315 15.3501 71.7361 15.4827C71.7361 15.4827 71.7901 15.2672 71.8345 14.8872C72.0674 12.8947 69.9014 13.0563 69.2103 13.6928C68.7978 14.0727 68.517 14.5209 68.4105 15.3266C68.2415 16.6053 69.2847 17.2084 69.2847 17.2084C68.9424 18.7746 68.1034 20.8206 67.2372 22.2999C66.7733 23.0924 66.4183 23.6797 65.9602 24.304C65.9585 24.0716 65.9572 23.8391 65.9564 23.6078C65.9459 20.3149 65.9897 17.7233 66.0091 16.7892C66.0279 15.8743 66.0646 15.1904 66.0626 15.031C66.0574 14.6734 65.8485 14.5383 65.414 14.3673C65.0298 14.2161 64.5756 14.1114 64.1044 14.0749C63.5096 14.0285 63.1513 14.3439 63.1607 14.7168C63.1625 14.7872 63.1625 15.2195 63.1625 15.2195C62.6734 14.4511 61.8867 13.9164 61.3634 13.7614C59.9537 13.3431 58.4827 13.7139 57.3731 15.2658C56.4915 16.499 55.9141 18.2296 55.7505 19.8873C55.5981 21.4322 55.6262 22.7452 55.834 23.8512C55.6098 24.9587 54.9653 26.1168 54.2366 26.1168C53.305 26.1168 52.775 25.2931 52.775 21.5286C52.775 19.3324 52.8409 18.3775 52.8733 16.7892C52.8922 15.8743 52.9285 15.1716 52.9264 15.0123C52.9196 14.5234 52.0738 14.277 51.6803 14.1857C51.2686 14.0906 50.9131 14.0555 50.6401 14.0756C50.28 14.1025 50.0267 14.4249 50.0267 14.6653V15.2195C49.5377 14.4511 48.751 13.9164 48.2276 13.7614C46.818 13.3431 45.3552 13.7199 44.2374 15.2658C43.5085 16.2739 42.9185 17.3914 42.6148 19.8653C42.527 20.5802 42.4882 21.2496 42.4933 21.8754C42.2026 23.6523 40.9189 25.7003 39.8688 25.7003C39.2543 25.7003 38.6691 24.5089 38.6691 21.9696C38.6691 18.5872 38.8785 13.7713 38.9139 13.3072C38.9139 13.3072 40.2407 13.2846 40.4976 13.2816C41.1594 13.2744 41.7588 13.29 42.6403 13.2449C43.0824 13.2224 43.5083 11.6362 43.052 11.4399C42.8452 11.3511 41.3836 11.2732 40.8041 11.2609C40.3169 11.2499 38.9605 11.1496 38.9605 11.1496C38.9605 11.1496 39.0821 7.95299 39.1105 7.61532C39.1345 7.33388 38.7702 7.18898 38.5614 7.10105C38.0535 6.8863 37.599 6.78348 37.0604 6.67248C36.3162 6.51901 35.9786 6.66912 35.9127 7.297C35.8134 8.2499 35.7619 11.041 35.7619 11.041C35.2158 11.041 33.3504 10.9342 32.8041 10.9342C32.2966 10.9342 31.7488 13.1162 32.4505 13.1431C33.2578 13.1744 34.6647 13.2014 35.5974 13.2295C35.5974 13.2295 35.5559 18.1247 35.5559 19.636C35.5559 19.7968 35.5573 19.9516 35.5575 20.1019C35.0442 22.7765 33.2362 24.2213 33.2362 24.2213C33.6245 22.4519 32.8313 21.1231 31.4026 19.9983C30.8762 19.5838 29.8371 18.7991 28.6745 17.9392C28.6745 17.9392 29.3479 17.2758 29.945 15.9411C30.3682 14.9956 30.3864 13.9136 29.3479 13.6751C27.6319 13.2806 26.217 14.5404 25.7949 15.8854C25.4679 16.9273 25.6423 17.7004 26.2829 18.5036C26.3297 18.5623 26.3804 18.6222 26.4327 18.6826C26.0454 19.4289 25.5132 20.4338 25.0625 21.2131C23.8116 23.3766 22.8666 25.088 22.1524 25.088C21.5815 25.088 21.5891 23.3505 21.5891 21.7238C21.5891 20.3214 21.6927 18.213 21.7755 16.0301C21.8028 15.3082 21.4418 14.8969 20.8364 14.5244C20.4686 14.2981 19.6836 13.8531 19.229 13.8531C18.5486 13.8531 16.5853 13.9457 14.7303 19.3097C14.4966 19.9858 14.0373 21.2177 14.0373 21.2177L14.0768 14.7673C14.0768 14.616 13.9963 14.4698 13.8118 14.3698C13.4992 14.2001 12.6643 13.8531 11.9219 13.8531C11.5682 13.8531 11.3917 14.0176 11.3917 14.3454L11.327 24.4372C11.327 25.204 11.347 26.0985 11.4228 26.4898C11.4984 26.8815 11.6208 27.2002 11.7724 27.3898C11.9237 27.579 12.0989 27.7234 12.3876 27.7829C12.6563 27.8382 14.1277 28.0271 14.2042 27.465C14.2958 26.7913 14.2993 26.0627 15.072 23.3452C16.2748 19.1143 17.8431 17.05 18.5804 16.3169C18.7093 16.1888 18.8565 16.1811 18.8494 16.3909C18.8179 17.3184 18.7072 19.6362 18.6327 21.6053C18.433 26.8749 19.392 27.8517 20.7624 27.8517C21.8108 27.8517 23.2887 26.8103 24.8729 24.1742C25.8606 22.5314 26.8196 20.9207 27.5086 19.7597C27.9888 20.204 28.5276 20.6823 29.0661 21.1932C30.3174 22.3804 30.7282 23.5085 30.4556 24.5788C30.2471 25.3969 29.462 26.2401 28.0646 25.4206C27.6573 25.1815 27.4835 24.9967 27.0739 24.7272C26.8539 24.5824 26.5179 24.5391 26.3165 24.6908C25.7934 25.0851 25.4941 25.5867 25.3233 26.2077C25.1571 26.812 25.7624 27.1314 26.3899 27.4108C26.9303 27.6512 28.0916 27.8691 28.8322 27.8939C31.7179 27.9904 34.0296 26.5011 35.6389 22.6593C35.9269 25.9771 37.1529 27.8546 39.2829 27.8546C40.7069 27.8546 42.1347 26.0145 42.7591 24.2044C42.9383 24.9422 43.2036 25.5839 43.5463 26.1265C45.1876 28.7261 48.3716 28.1666 49.9709 25.9591C50.4654 25.277 50.5407 25.0319 50.5407 25.0319C50.774 27.1163 52.4531 27.8446 53.4145 27.8446C54.4912 27.8446 55.603 27.3357 56.3822 25.5821C56.4735 25.7724 56.5732 25.9542 56.682 26.1265C58.3233 28.7261 61.5073 28.1665 63.1067 25.9591C63.1821 25.8555 63.2475 25.7616 63.3047 25.6773L63.3517 27.0464C63.3517 27.0464 62.4393 27.8831 61.8792 28.3964C59.4142 30.6572 57.5398 32.3725 57.4019 34.3699C57.2249 36.9168 59.2912 37.8633 60.8544 37.9874C62.5145 38.1191 63.9362 37.2023 64.81 35.9193C65.5786 34.7901 66.0816 32.3596 66.0447 29.9591C66.03 28.9979 66.0058 27.7756 65.9868 26.4655C66.8532 25.4597 67.8293 24.1885 68.7281 22.7005C69.7076 21.0789 70.7573 18.9012 71.2948 17.2064C71.2948 17.2064 72.2069 17.2143 73.1802 17.1506C73.4916 17.1303 73.581 17.1938 73.5234 17.4219C73.4539 17.6976 72.2937 22.1711 73.3526 25.1513C74.0774 27.1913 75.7112 27.8477 76.6799 27.8477C77.8138 27.8477 78.8986 26.9916 79.4799 25.7205C79.5499 25.8622 79.6232 25.9993 79.7031 26.1259C81.3444 28.7255 84.5172 28.1626 86.1278 25.9585C86.4913 25.4612 86.6975 25.0313 86.6975 25.0313C87.0432 27.1885 88.7213 27.855 89.6825 27.855C90.6838 27.855 91.6341 27.4446 92.4051 25.621C92.4373 26.4239 92.488 27.0805 92.5681 27.2875C92.6169 27.4141 92.9014 27.573 93.1084 27.6497C94.0244 27.9893 94.9586 27.8287 95.3042 27.7589C95.5436 27.7104 95.7303 27.5184 95.7558 27.0226C95.8229 25.7207 95.7817 23.5332 96.1765 21.9076C96.8393 19.1793 97.4575 18.121 97.7508 17.597C97.9149 17.3035 98.1001 17.255 98.1068 17.5657C98.1207 18.1943 98.1519 20.0403 98.4087 22.5205C98.5972 24.3446 98.8491 25.4228 99.0427 25.764C99.5951 26.7398 100.277 26.786 100.833 26.786C101.186 26.786 101.926 26.6884 101.859 26.0674C101.827 25.7648 101.884 23.8942 102.537 21.2063C102.964 19.451 103.675 17.865 103.932 17.2852C104.026 17.0714 104.07 17.2399 104.069 17.2728C104.015 18.4816 103.894 22.4355 104.386 24.5979C105.054 27.5274 106.986 27.8552 107.659 27.8552C109.096 27.8552 110.271 26.7624 110.667 23.887C110.763 23.195 110.621 22.6607 110.198 22.6607" fill="#FAFAFA"/>
</g>
<defs>
<clipPath id="clip0_7_475">
<rect width="110.696" height="38" fill="white"/>
</clipPath>
</defs>
</svg>
